<?xml version="1.0" standalone="no"?><!DOCTYPE svg PUBLIC "-//W3C//DTD SVG 1.1//EN" "http://www.w3.org/Graphics/SVG/1.1/DTD/svg11.dtd"><svg width="36.03125" height="32" viewBox="0 0 36.03125 32" version="1.1" xmlns="http://www.w3.org/2000/svg" xmlns:xlink="http://www.w3.org/1999/xlink"><defs><style type="text/css"><![CDATA[
@font-face { font-family: ifont; src: url("//at.alicdn.com/t/font_1442373896_4754455.eot?#iefix") format("embedded-opentype"), url("//at.alicdn.com/t/font_1442373896_4754455.woff") format("woff"), url("//at.alicdn.com/t/font_1442373896_4754455.ttf") format("truetype"), url("//at.alicdn.com/t/font_1442373896_4754455.svg#ifont") format("svg"); }

]]></style></defs><g class="transform-group"><g transform="scale(0.03125, 0.03125)"><path d="M1147.273 109.813h-36.367c-10.937 0-11.943 4.046-11.943 11.526-0.049 28.103-0.074 107.9-0.098 206.163-0.025 172.175-0.049 401.12-0.049 508.432 0 22.389-19.471 22.684-29.060 22.535-395.676-6.351-491.513 119.156-491.513 119.156s-95.982-125.508-491.634-119.156c-9.588 0.147-29.084-0.147-29.084-22.535 0-168.545 0.391-637.226 0.27-714.595 0-7.479-1.005-11.526-11.918-11.526h-31.929c-8.265 0-10.986 2.967-10.986 12.286v781.149c0 9.319 4.512 14.247 12.825 13.806 70.969-3.801 397.196-5.125 501.811 106.944h121.314c135.489-125.484 432.338-110.745 503.331-106.944 8.289 0.466 12.825-4.487 12.825-13.806v-781.149c-0.025-9.319 0.441-12.286-7.798-12.286zM152.43 803.735c36.416 0 200.597-2.894 425.814 120.259 225.193-123.154 389.374-120.261 425.79-120.261 36.416 0 39.727-22.659 39.727-22.659s0-722.197 0-754.592c0-32.395-16.553-25.921-16.553-25.921-334.491 6.499-448.965 166.387-448.965 166.387s-114.546-159.89-449.013-166.387c0 0-16.553-6.499-16.553 25.921 0 32.419 0 754.592 0 754.592s3.335 22.659 39.751 22.659zM550.756 217.91h55.569v642.94h-55.569v-642.94z" fill="#ecf0f1"></path></g></g></svg>