<?xml version="1.0" standalone="no"?><!DOCTYPE svg PUBLIC "-//W3C//DTD SVG 1.1//EN" "http://www.w3.org/Graphics/SVG/1.1/DTD/svg11.dtd"><svg width="16" height="16" viewBox="0 0 16 16" version="1.1" xmlns="http://www.w3.org/2000/svg" xmlns:xlink="http://www.w3.org/1999/xlink"><defs><style type="text/css"><![CDATA[
@font-face { font-family: ifont; src: url("//at.alicdn.com/t/font_1442373896_4754455.eot?#iefix") format("embedded-opentype"), url("//at.alicdn.com/t/font_1442373896_4754455.woff") format("woff"), url("//at.alicdn.com/t/font_1442373896_4754455.ttf") format("truetype"), url("//at.alicdn.com/t/font_1442373896_4754455.svg#ifont") format("svg"); }

]]></style></defs><g class="transform-group"><g transform="scale(0.015625, 0.015625)"><path d="M960.00512 320l0 511.99488c0 106.04544-85.95968 192.00512-192 192.00512L256 1024c-106.04032 0-192.00512-85.95968-192.00512-192.00512L63.99488 320C28.65152 320 0 291.34336 0 256c0-35.34848 28.65152-63.99488 63.99488-63.99488L320 192.00512C320 85.95968 405.9648 0 512.00512 0s192 85.95968 192 192.00512l256 0C995.3536 192.00512 1024 220.65152 1024 256 1024 291.34336 995.3536 320 960.00512 320zM512.00512 128c-35.34336 0-64 28.65152-64 64.00512l128.00512 0C576.01024 156.65152 547.34336 128 512.00512 128zM832.00512 320 192 320l0 511.99488c0 35.34848 28.65152 64.01536 64 64.01536l512.00512 0c35.34848 0 64-28.66688 64-64.01536L832.00512 320zM448.00512 383.99488l128.00512 0 0 448L448.00512 831.99488 448.00512 383.99488zM256 383.99488l128 0 0 448L256 831.99488 256 383.99488zM640.00512 383.99488l128 0 0 448-128 0L640.00512 383.99488z" fill="#ecf0f1"></path></g></g></svg>