<?xml version="1.0" standalone="no"?><!DOCTYPE svg PUBLIC "-//W3C//DTD SVG 1.1//EN" "http://www.w3.org/Graphics/SVG/1.1/DTD/svg11.dtd"><svg width="24" height="24" viewBox="0 0 24 24" version="1.1" xmlns="http://www.w3.org/2000/svg" xmlns:xlink="http://www.w3.org/1999/xlink"><defs><style type="text/css"><![CDATA[
@font-face { font-family: ifont; src: url("//at.alicdn.com/t/font_1442373896_4754455.eot?#iefix") format("embedded-opentype"), url("//at.alicdn.com/t/font_1442373896_4754455.woff") format("woff"), url("//at.alicdn.com/t/font_1442373896_4754455.ttf") format("truetype"), url("//at.alicdn.com/t/font_1442373896_4754455.svg#ifont") format("svg"); }

]]></style></defs><g class="transform-group"><g transform="scale(0.0234375, 0.0234375)"><path d="M796.3 370.6 590.9 165.4 84.9 670.8 71 890l219.4-13.9L796.3 370.6zM134 738.8 600.2 260 701 360.8 222.2 827 134 738.8zM857.3 309.1 651.9 103.8l64.9-64.4c42.7-42.7 95.8-41.1 137.3 0.4 41.5 41.5 22.8 22.8 68.3 68.3 45.6 45.5 35.5 100.9-0.2 136.6C886.5 280.3 857.3 309.1 857.3 309.1zM1016 953l0 63L8 1016l0-63L1016 953z" fill="#ecf0f1"></path></g></g></svg>