<?xml version="1.0" standalone="no"?><!DOCTYPE svg PUBLIC "-//W3C//DTD SVG 1.1//EN" "http://www.w3.org/Graphics/SVG/1.1/DTD/svg11.dtd"><svg width="20" height="16" viewBox="0 0 20 16" version="1.1" xmlns="http://www.w3.org/2000/svg" xmlns:xlink="http://www.w3.org/1999/xlink"><defs><style type="text/css"><![CDATA[
@font-face { font-family: ifont; src: url("//at.alicdn.com/t/font_1442373896_4754455.eot?#iefix") format("embedded-opentype"), url("//at.alicdn.com/t/font_1442373896_4754455.woff") format("woff"), url("//at.alicdn.com/t/font_1442373896_4754455.ttf") format("truetype"), url("//at.alicdn.com/t/font_1442373896_4754455.svg#ifont") format("svg"); }

]]></style></defs><g class="transform-group"><g transform="scale(0.015625, 0.015625)"><path d="M1072.213333 85.333333l-139.52 134.4-76.8 76.373333L855.893333 292.693333l-257.706667 247.893333L469.333333 768l227.413333-144.213333L1152 183.893333 1072.213333 85.333333zM855.466667 121.6l0.426667 171.093333 0 3.413333 76.8-76.373333L981.333333 170.666667 981.333333 64C981.333333 28.586667 951.893333 0 915.626667 0l-393.813333 0L128 384l0 21.333333 0 554.666667C128 995.413333 157.44 1024 193.706667 1024l721.92 0c36.266667 0 65.706667-28.586667 65.706667-64L981.333333 512l-124.16 124.16 0.853333 263.68L256 902.4 250.453333 380.16l253.866667-2.56 5.546667-258.56L855.466667 121.6z" fill="#ecf0f1"></path></g></g></svg>