<?xml version="1.0" standalone="no"?><!DOCTYPE svg PUBLIC "-//W3C//DTD SVG 1.1//EN" "http://www.w3.org/Graphics/SVG/1.1/DTD/svg11.dtd"><svg width="24" height="24" viewBox="0 0 24 24" version="1.1" xmlns="http://www.w3.org/2000/svg" xmlns:xlink="http://www.w3.org/1999/xlink"><defs><style type="text/css"><![CDATA[
@font-face { font-family: ifont; src: url("//at.alicdn.com/t/font_1442373896_4754455.eot?#iefix") format("embedded-opentype"), url("//at.alicdn.com/t/font_1442373896_4754455.woff") format("woff"), url("//at.alicdn.com/t/font_1442373896_4754455.ttf") format("truetype"), url("//at.alicdn.com/t/font_1442373896_4754455.svg#ifont") format("svg"); }

]]></style></defs><g class="transform-group"><g transform="scale(0.0234375, 0.0234375)"><path d="M512.300741 1024c282.489002 0 511.488024-228.999022 511.488024-511.488024 0-282.483887-228.999022-511.488024-511.488024-511.488024S0.812717 230.028089 0.812717 512.510953C0.812717 795.000978 229.811739 1024 512.300741 1024zM350.050905 486.874307l219.275059-247.49767c12.974831-14.634022 34.014435-14.634022 46.988243 0 12.980969 14.668802 12.980969 38.37825 0 53.024547l-195.786563 220.962892 195.786563 220.962892c12.980969 14.673916 12.980969 38.401777 0 53.029662-12.974831 14.662664-34.014435 14.662664-46.988243 0l-219.275059-247.463913C337.077096 525.258694 337.077096 501.514466 350.050905 486.874307z" fill="#ecf0f1"></path></g></g></svg>