<?xml version="1.0" standalone="no"?><!DOCTYPE svg PUBLIC "-//W3C//DTD SVG 1.1//EN" "http://www.w3.org/Graphics/SVG/1.1/DTD/svg11.dtd"><svg width="24" height="24" viewBox="0 0 24 24" version="1.1" xmlns="http://www.w3.org/2000/svg" xmlns:xlink="http://www.w3.org/1999/xlink"><defs><style type="text/css"><![CDATA[
@font-face { font-family: ifont; src: url("//at.alicdn.com/t/font_1442373896_4754455.eot?#iefix") format("embedded-opentype"), url("//at.alicdn.com/t/font_1442373896_4754455.woff") format("woff"), url("//at.alicdn.com/t/font_1442373896_4754455.ttf") format("truetype"), url("//at.alicdn.com/t/font_1442373896_4754455.svg#ifont") format("svg"); }

]]></style></defs><g class="transform-group"><g transform="scale(0.0234375, 0.0234375)"><path d="M511.699 0c-282.489 0-511.488 228.999-511.488 511.488 0 282.484 228.999 511.488 511.488 511.488s511.488-229.004 511.489-511.487c0-282.491-228.999-511.489-511.488-511.489zM673.949 537.126l-219.275 247.498c-12.975 14.634-34.014 14.634-46.989 0-12.981-14.67-12.981-38.378 0-53.025l195.787-220.963-195.787-220.963c-12.981-14.674-12.981-38.402 0-53.030 12.975-14.663 34.014-14.663 46.989 0l219.275 247.464c12.974 14.634 12.974 38.378 0 53.017z" fill="#ecf0f1"></path></g></g></svg>