<?xml version="1.0" standalone="no"?><!DOCTYPE svg PUBLIC "-//W3C//DTD SVG 1.1//EN" "http://www.w3.org/Graphics/SVG/1.1/DTD/svg11.dtd"><svg width="12" height="12" viewBox="0 0 12 12" version="1.1" xmlns="http://www.w3.org/2000/svg" xmlns:xlink="http://www.w3.org/1999/xlink"><defs><style type="text/css"><![CDATA[
@font-face { font-family: ifont; src: url("//at.alicdn.com/t/font_1442373896_4754455.eot?#iefix") format("embedded-opentype"), url("//at.alicdn.com/t/font_1442373896_4754455.woff") format("woff"), url("//at.alicdn.com/t/font_1442373896_4754455.ttf") format("truetype"), url("//at.alicdn.com/t/font_1442373896_4754455.svg#ifont") format("svg"); }

]]></style></defs><g class="transform-group"><g transform="scale(0.01171875, 0.01171875)"><path d="M383.62112 809.30816l-168.92928-168.92928c-7.7568-7.77472-7.7568-20.36992 0-28.1472l380.0576-380.04224c7.7568-7.76704 20.37248-7.76704 28.14976 0l168.9088 168.9088c7.77216 7.77472 7.77216 20.39296 0 28.16768L411.76832 809.30816C403.9936 817.08032 391.38048 817.08032 383.62112 809.30816zM693.27104 133.6704c23.32672-23.32672 61.13792-23.32672 84.46208 0l112.59392 112.60416c23.32672 23.31648 23.32672 61.12512 0 84.4544l-56.2944 56.2944-197.06112-197.056L693.27104 133.6704zM116.17536 907.82464l56.29696-253.37344 197.05856 197.07648L116.17536 907.82464z" fill="#ecf0f1"></path></g></g></svg>